<svg width="283" height="244" viewBox="0 0 283 244" fill="none" xmlns="http://www.w3.org/2000/svg">
<path d="M201.553 235.316C200.885 236.832 201.573 238.603 203.089 239.271C204.605 239.938 206.376 239.251 207.044 237.734L201.553 235.316ZM113.312 118.039L110.775 119.64L110.776 119.641L113.312 118.039ZM197.935 96.9701L194.971 96.5038L194.971 96.5042L197.935 96.9701ZM44.8846 41.3348C43.4548 42.1721 42.9745 44.0099 43.8118 45.4396C44.649 46.8694 46.4868 47.3497 47.9165 46.5124L44.8846 41.3348ZM223.44 232.425C224.941 231.724 225.59 229.939 224.889 228.438C224.188 226.936 222.403 226.287 220.902 226.988L223.44 232.425ZM203.643 238.355L201.109 239.96C201.916 241.235 203.545 241.712 204.912 241.073L203.643 238.355ZM194.653 219.36C193.626 218.06 191.74 217.838 190.439 218.865C189.139 219.892 188.917 221.778 189.944 223.078L194.653 219.36ZM204.299 236.525C207.044 237.734 207.045 237.733 207.045 237.732C207.046 237.731 207.046 237.729 207.047 237.727C207.049 237.723 207.051 237.718 207.054 237.712C207.06 237.699 207.068 237.68 207.078 237.657C207.098 237.61 207.128 237.542 207.166 237.453C207.242 237.275 207.352 237.015 207.493 236.677C207.775 236.001 208.178 235.011 208.672 233.741C209.661 231.201 211.017 227.534 212.495 223.003C215.449 213.949 218.907 201.398 220.9 187.444C224.861 159.72 223.159 125.512 198.912 102.752L194.806 107.126C216.83 127.801 218.848 159.386 214.961 186.596C213.03 200.109 209.672 212.311 206.791 221.142C205.352 225.554 204.035 229.114 203.081 231.564C202.604 232.789 202.218 233.736 201.954 234.372C201.821 234.69 201.719 234.93 201.651 235.089C201.617 235.168 201.592 235.227 201.575 235.265C201.567 235.284 201.561 235.298 201.557 235.306C201.555 235.311 201.554 235.313 201.553 235.315C201.553 235.316 201.553 235.316 201.553 235.316C201.553 235.316 201.553 235.316 204.299 236.525ZM198.912 102.752C175.027 80.3312 149.392 77.5723 131.358 83.8211C122.409 86.9219 115.228 92.2901 111.245 98.6848C107.21 105.165 106.457 112.798 110.775 119.64L115.849 116.438C112.977 111.886 113.287 106.756 116.338 101.857C119.443 96.8721 125.371 92.2455 133.323 89.4904C149.089 84.0273 172.419 86.112 194.806 107.126L198.912 102.752ZM110.776 119.641C114.865 126.116 122.192 130.871 130.62 133.716C139.096 136.577 148.998 137.618 158.661 136.401C178.027 133.964 196.991 122.292 200.898 97.436L194.971 96.5042C191.593 117.99 175.439 128.242 157.912 130.448C149.128 131.554 140.14 130.596 132.539 128.031C124.89 125.449 118.953 121.351 115.849 116.437L110.776 119.641ZM200.898 97.4364C202.9 84.7136 197.866 72.3877 188.648 61.8558C179.433 51.3266 165.868 42.3641 150.162 36.1387C118.792 23.7045 78.0804 21.8954 44.8846 41.3348L47.9165 46.5124C79.1353 28.2307 117.836 29.7797 147.951 41.7165C162.988 47.6766 175.684 56.1528 184.133 65.8073C192.58 75.459 196.614 86.0616 194.971 96.5038L200.898 97.4364ZM220.902 226.988L202.374 235.636L204.912 241.073L223.44 232.425L220.902 226.988ZM203.643 238.355C206.178 236.75 206.178 236.75 206.178 236.75C206.178 236.749 206.178 236.749 206.177 236.749C206.177 236.749 206.177 236.748 206.176 236.747C206.175 236.745 206.173 236.743 206.171 236.739C206.167 236.732 206.16 236.722 206.152 236.709C206.135 236.682 206.109 236.642 206.077 236.59C206.011 236.486 205.914 236.334 205.79 236.138C205.542 235.748 205.185 235.188 204.749 234.506C203.878 233.142 202.689 231.29 201.422 229.337C198.933 225.502 196.007 221.074 194.653 219.36L189.944 223.078C191.082 224.52 193.829 228.66 196.389 232.604C197.646 234.541 198.827 236.381 199.693 237.737C200.126 238.414 200.481 238.971 200.726 239.358C200.849 239.551 200.945 239.702 201.01 239.804C201.043 239.855 201.067 239.895 201.084 239.921C201.092 239.934 201.099 239.944 201.103 239.95C201.105 239.954 201.106 239.956 201.107 239.958C201.108 239.958 201.108 239.959 201.108 239.959C201.109 239.96 201.109 239.96 201.109 239.96C201.109 239.96 201.109 239.96 203.643 238.355Z" fill="#FFC107"/>
</svg>
