<svg width="29" height="29" viewBox="0 0 29 29" fill="none" xmlns="http://www.w3.org/2000/svg">
<path d="M28.569 17.9996C26.6341 25.7627 18.7714 30.5031 10.994 28.5671C3.23088 26.6263 -1.50193 18.7635 0.432927 11.0004C2.36778 3.23731 10.2258 -1.50312 17.9842 0.432914C25.7663 2.34522 30.4991 10.2317 28.569 17.9996Z" fill="#E84142"/>
<path d="M5.54797 22.1777H9.16597C10.0179 22.1777 10.4438 22.1777 10.8239 22.0724C11.2407 21.9487 11.6208 21.7289 11.9368 21.4267C12.227 21.15 12.4365 20.7835 12.8498 20.0602L12.862 20.039L17.5544 11.744C17.9712 11.0158 18.1773 10.6494 18.2689 10.2646C18.3697 9.84787 18.3697 9.40822 18.2689 8.99145C18.1781 8.60991 17.97 8.24639 17.5599 7.52996L17.5593 7.52855L17.5498 7.51218L15.7133 4.3063C15.3332 3.63763 15.1409 3.30333 14.8981 3.17966C14.6371 3.04688 14.3256 3.04688 14.0646 3.17966C13.8218 3.30333 13.6295 3.63763 13.2494 4.3063L4.31594 20.0527C3.94034 20.7122 3.7526 21.0419 3.76633 21.3122C3.78467 21.6053 3.93584 21.8709 4.18312 22.0312C4.41217 22.1777 4.78766 22.1777 5.54797 22.1777Z" fill="white"/>
<path d="M23.4871 22.1781H18.3028C17.5379 22.1781 17.1533 22.1781 16.9288 22.0316C16.6816 21.8713 16.5304 21.6011 16.512 21.308C16.4984 21.0399 16.6877 20.7131 17.0665 20.0593L17.0754 20.0439L19.6629 15.6015C20.0431 14.9466 20.2355 14.6214 20.4737 14.4978C20.7347 14.365 21.0415 14.365 21.3025 14.4978C21.539 14.6183 21.7233 14.9298 22.0882 15.547L22.1178 15.597L24.7146 20.0394L24.752 20.104C25.112 20.7251 25.2957 21.0421 25.2825 21.3034C25.2687 21.5965 25.113 21.8667 24.8657 22.027C24.6367 22.1781 24.2519 22.1781 23.4871 22.1781Z" fill="white"/>
</svg>
