<svg width="28" height="28" viewBox="0 0 28 28" fill="none" xmlns="http://www.w3.org/2000/svg">
<rect width="28" height="28" rx="14" fill="#0B0E11"/>
<path d="M14 8.24617L9.92175 12.3243L7.54874 9.95129L14 3.5L20.4532 9.95338L18.0802 12.3265L14 8.24617Z" fill="#F0B90B"/>
<path d="M8.24606 13.9998L5.87308 11.6268L3.5 13.9999L5.87295 16.3729L8.24606 13.9998Z" fill="#F0B90B"/>
<path d="M14 19.7537L9.92175 15.6756L7.54534 18.0455L7.54864 18.0487L14 24.5L20.4532 18.0466L20.4544 18.0454L18.0801 15.6736L14 19.7537Z" fill="#F0B90B"/>
<path d="M22.127 16.3732L24.5 14.0002L22.127 11.6272L19.7541 14.0002L22.127 16.3732Z" fill="#F0B90B"/>
<path d="M16.4079 13.9988H16.4068L16.409 14L13.9999 16.4092L11.594 14.0033L11.5907 14L13.9999 11.5907L16.4079 13.9988Z" fill="#F0B90B"/>
</svg>
