<svg width="27" height="27" viewBox="0 0 27 27" fill="none" xmlns="http://www.w3.org/2000/svg">
<path d="M13.4609 26C20.3645 26 25.9609 20.4036 25.9609 13.5C25.9609 6.59644 20.3645 1 13.4609 1C6.55738 1 0.960938 6.59644 0.960938 13.5C0.960938 20.4036 6.55738 26 13.4609 26Z" fill="#627EEA" stroke="#CED4DA"/>
<path d="M13.8281 4.49707V11.1499L19.4509 13.6627L13.8281 4.49707Z" fill="#CED4DA"/>
<path d="M13.8337 4.49707L8.21094 13.6627L13.8337 11.1499V4.49707Z" fill="#CED4DA"/>
<path d="M13.8281 17.975V22.4955L19.4542 14.7109L13.8281 17.975Z" fill="#CED4DA"/>
<path d="M13.8337 22.4955V17.975L8.21094 14.7109L13.8337 22.4955Z" fill="#CED4DA"/>
<path d="M13.8281 16.9293L19.4509 13.6652L13.8281 11.1523V16.9293Z" fill="white" fill-opacity="0.2"/>
<path d="M8.21094 13.6652L13.8337 16.9293V11.1523L8.21094 13.6652Z" fill="#CED4DA"/>
</svg>
