<svg width="29" height="29" viewBox="0 0 29 29" fill="none" xmlns="http://www.w3.org/2000/svg">
<path d="M28.569 17.9996C26.6341 25.7627 18.7714 30.5031 10.994 28.5671C3.23088 26.6263 -1.50193 18.7635 0.432927 11.0004C2.36778 3.23731 10.2258 -1.50312 17.9842 0.432914C25.7663 2.34522 30.4991 10.2317 28.569 17.9996Z" fill="#ECEFF0"/>
<path d="M14.6698 18.0184C14.6134 18.0376 14.5813 17.9885 14.543 17.966C12.6652 16.8577 10.7894 15.7487 8.91571 14.6389C8.89757 14.6297 8.87873 14.622 8.85938 14.6158V14.591L8.89261 14.5718C8.93981 14.5594 8.98627 14.5444 9.03176 14.5268L13.4569 12.5134C13.8512 12.3336 14.2456 12.1568 14.6399 11.9787H14.6681C14.6681 12.0351 14.6681 12.0852 14.6681 12.1387C14.6696 14.0988 14.6701 16.0587 14.6698 18.0184Z" fill="#343535"/>
<path d="M14.6726 11.9801H14.6444C14.6444 11.9238 14.65 11.8674 14.65 11.8083C14.65 9.60671 14.65 7.40495 14.65 5.20301C14.6436 5.14645 14.6474 5.0892 14.6613 5.034H14.6731C14.9047 5.37596 15.1063 5.7365 15.3193 6.08972C17.0063 8.88806 18.6924 11.686 20.3776 14.4836C20.394 14.5112 20.4069 14.54 20.4216 14.5704C20.3738 14.5602 20.3269 14.5464 20.2813 14.5293C19.972 14.3896 19.6616 14.2476 19.3551 14.1051C18.8752 13.8854 18.395 13.666 17.9146 13.4471L15.6004 12.3987C15.2923 12.2567 14.9824 12.1187 14.6726 11.9801Z" fill="#2F3030"/>
<path d="M14.6632 5.03109C14.6492 5.08628 14.6454 5.14354 14.6519 5.2001C14.6519 7.40167 14.6519 9.60342 14.6519 11.8054C14.6519 11.8617 14.6485 11.918 14.6463 11.9772C14.2519 12.1552 13.8576 12.3321 13.4632 12.5118L9.03811 14.5252C8.99261 14.5429 8.94615 14.5579 8.89896 14.5703C9.02684 14.3044 9.19303 14.0633 9.34457 13.8086C11.1003 10.8901 12.8574 7.97215 14.6158 5.05475C14.6274 5.03859 14.6401 5.02316 14.6536 5.00856L14.6632 5.03109Z" fill="#828384"/>
<path d="M14.6726 11.9801C14.9824 12.1187 15.2923 12.2568 15.6016 12.3965L17.9159 13.4449C18.3966 13.6634 18.8768 13.8828 19.3564 14.1029C19.6651 14.2443 19.976 14.3873 20.2825 14.5271C20.3282 14.5442 20.3751 14.558 20.4228 14.5682C20.4791 14.6386 20.3957 14.6414 20.3704 14.6566C19.8898 14.9439 19.4071 15.2273 18.9254 15.5124C17.5429 16.3303 16.1608 17.1481 14.7791 17.9657C14.7442 17.986 14.7064 18.0009 14.6698 18.0184C14.6698 16.0591 14.6698 14.0998 14.6698 12.1401C14.6704 12.0866 14.672 12.0336 14.6726 11.9801Z" fill="#131313"/>
<path d="M14.65 19.1314L18.2695 16.998C18.9605 16.5901 19.6512 16.1819 20.3415 15.7733L20.404 15.7389C20.4102 15.7952 20.3714 15.8251 20.3477 15.8578C18.7703 18.0815 17.1929 20.3045 15.6156 22.5267C15.317 22.9481 15.019 23.3717 14.7176 23.7897C14.7018 23.8117 14.6776 23.9148 14.6291 23.8055C14.6674 23.7728 14.6505 23.7289 14.6505 23.6928C14.6509 22.1718 14.6507 20.6513 14.65 19.1314Z" fill="#2F3030"/>
<path d="M14.6497 19.1317C14.6497 20.6516 14.6497 22.1711 14.6497 23.6903C14.6497 23.7292 14.6666 23.7731 14.6283 23.803C14.5477 23.7545 14.5128 23.6678 14.4593 23.5962C12.6302 21.0198 10.8022 18.4431 8.97504 15.866C8.95194 15.8333 8.93053 15.7983 8.90687 15.7623C8.95419 15.7347 8.97955 15.7724 9.00715 15.7888C10.8568 16.8809 12.7061 17.974 14.555 19.068C14.5894 19.0894 14.6187 19.1114 14.6497 19.1317Z" fill="#828384"/>
<path d="M14.6636 5.03106L14.6501 5.01022C14.6748 4.99444 14.6715 5.01754 14.6754 5.02937L14.6636 5.03106Z" fill="#393939"/>
</svg>
