<svg width="179" height="113" viewBox="0 0 179 113" fill="none" xmlns="http://www.w3.org/2000/svg">
<path d="M178.969 39.6875L21.205 62.4002L0.0355377 83.7634L178.969 39.6875Z" fill="#407BFF"/>
<path opacity="0.6" d="M178.969 39.6875L21.205 62.4002L0.0355377 83.7634L178.969 39.6875Z" fill="white"/>
<path d="M178.969 39.6875L21.205 62.4002L28.5267 93.2927L178.969 39.6875Z" fill="#407BFF"/>
<path opacity="0.2" d="M178.969 39.6875L21.205 62.4002L28.5267 93.2927L178.969 39.6875Z" fill="black"/>
<path d="M31.7658 3.92354L22.6102 46.8299C22.372 47.9503 22.588 49.1194 23.2107 50.0807C23.8334 51.0421 24.8121 51.7172 25.9319 51.9579L107.648 69.3972C108.768 69.6335 109.936 69.4167 110.897 68.7943C111.858 68.1718 112.533 67.1943 112.776 66.0754L121.938 23.1691C122.174 22.0479 121.957 20.8788 121.333 19.9178C120.709 18.9567 119.73 18.2819 118.61 18.0411L36.8938 0.60176C35.7726 0.36568 34.6035 0.583386 33.6425 1.20723C32.6814 1.83108 32.0066 2.81026 31.7658 3.93046V3.92354Z" fill="#407BFF"/>
<path opacity="0.4" d="M31.7658 3.92354L22.6102 46.8299C22.372 47.9503 22.588 49.1194 23.2107 50.0807C23.8334 51.0421 24.8121 51.7172 25.9319 51.9579L107.648 69.3972C108.768 69.6335 109.936 69.4167 110.897 68.7943C111.858 68.1718 112.533 67.1943 112.776 66.0754L121.938 23.1691C122.174 22.0479 121.957 20.8788 121.333 19.9178C120.709 18.9567 119.73 18.2819 118.61 18.0411L36.8938 0.60176C35.7726 0.36568 34.6035 0.583386 33.6425 1.20723C32.6814 1.83108 32.0066 2.81026 31.7658 3.93046V3.92354Z" fill="black"/>
<path d="M33.7834 1.11349L61.0843 34.6289C63.6162 37.7362 67.133 39.8861 71.053 40.723C74.9729 41.5598 79.0611 41.0334 82.6412 39.2309L121.25 19.7847C120.625 18.8874 119.683 18.2614 118.613 18.0338L36.8976 0.594465C35.8312 0.36751 34.7185 0.552965 33.7834 1.11349Z" fill="#407BFF"/>
<path d="M178.969 39.6875L48.8449 70.6147L28.5267 93.2927L178.969 39.6875Z" fill="#407BFF"/>
<path opacity="0.6" d="M178.969 39.6875L48.8449 70.6147L28.5267 93.2927L178.969 39.6875Z" fill="white"/>
<path d="M131.502 69.4976L131.852 70.0947L117.371 78.5768L117.021 77.9797L131.502 69.4976Z" fill="#407BFF"/>
<path d="M110.627 81.7193L110.977 82.3164L105.77 85.3665L105.42 84.7693L110.627 81.7193Z" fill="#407BFF"/>
<path d="M178.969 39.6875L48.8449 70.6147L74.1389 101.099L178.969 39.6875Z" fill="#407BFF"/>
<path d="M4.92299 112.144C5.09829 112.145 5.27206 112.112 5.43509 112.048L26.6253 103.66C26.9643 103.524 27.2355 103.258 27.3798 102.923C27.5241 102.587 27.5296 102.208 27.3953 101.868C27.261 101.528 26.9977 101.255 26.6628 101.108C26.328 100.962 25.9488 100.954 25.608 101.086L4.41087 109.473C4.11099 109.592 3.86192 109.811 3.70662 110.094C3.55133 110.376 3.49956 110.704 3.56027 111.021C3.62098 111.338 3.79035 111.623 4.03915 111.828C4.28794 112.033 4.60055 112.145 4.92299 112.144Z" fill="#407BFF"/>
<path opacity="0.3" d="M4.92299 112.144C5.09829 112.145 5.27206 112.112 5.43509 112.048L26.6253 103.66C26.9643 103.524 27.2355 103.258 27.3798 102.923C27.5241 102.587 27.5296 102.208 27.3953 101.868C27.261 101.528 26.9977 101.255 26.6628 101.108C26.328 100.962 25.9488 100.954 25.608 101.086L4.41087 109.473C4.11099 109.592 3.86192 109.811 3.70662 110.094C3.55133 110.376 3.49956 110.704 3.56027 111.021C3.62098 111.338 3.79035 111.623 4.03915 111.828C4.28794 112.033 4.60055 112.145 4.92299 112.144Z" fill="black"/>
<path d="M6.17999 99.9919C6.35356 99.9908 6.52521 99.9556 6.68516 99.8881L18.0692 95.3553C18.2394 95.2893 18.3948 95.1904 18.5266 95.0641C18.6584 94.9378 18.7639 94.7867 18.8371 94.6195C18.9103 94.4522 18.9496 94.2722 18.9529 94.0897C18.9562 93.9072 18.9233 93.7258 18.8563 93.5561C18.7892 93.3863 18.6892 93.2315 18.562 93.1006C18.4349 92.9696 18.2831 92.8651 18.1154 92.793C17.9477 92.721 17.7674 92.6828 17.5848 92.6808C17.4023 92.6787 17.2212 92.7127 17.0519 92.7809L5.66786 97.293C5.3267 97.4273 5.05277 97.6914 4.90615 98.0274C4.75954 98.3635 4.75223 98.744 4.88586 99.0854C4.9833 99.3505 5.15952 99.5794 5.39084 99.7415C5.62217 99.9035 5.89755 99.9909 6.17999 99.9919Z" fill="#407BFF"/>
<path opacity="0.5" d="M6.17999 99.9919C6.35356 99.9908 6.52521 99.9556 6.68516 99.8881L18.0692 95.3553C18.2394 95.2893 18.3948 95.1904 18.5266 95.0641C18.6584 94.9378 18.7639 94.7867 18.8371 94.6195C18.9103 94.4522 18.9496 94.2722 18.9529 94.0897C18.9562 93.9072 18.9233 93.7258 18.8563 93.5561C18.7892 93.3863 18.6892 93.2315 18.562 93.1006C18.4349 92.9696 18.2831 92.8651 18.1154 92.793C17.9477 92.721 17.7674 92.6828 17.5848 92.6808C17.4023 92.6787 17.2212 92.7127 17.0519 92.7809L5.66786 97.293C5.3267 97.4273 5.05277 97.6914 4.90615 98.0274C4.75954 98.3635 4.75223 98.744 4.88586 99.0854C4.9833 99.3505 5.15952 99.5794 5.39084 99.7415C5.62217 99.9035 5.89755 99.9909 6.17999 99.9919Z" fill="white"/>
<path d="M29.971 111.964C30.1438 111.962 30.3149 111.93 30.4762 111.868L51.1473 103.66C51.3175 103.594 51.473 103.495 51.6048 103.369C51.7366 103.242 51.8421 103.091 51.9152 102.924C51.9884 102.757 52.0277 102.577 52.031 102.394C52.0343 102.212 52.0015 102.031 51.9344 101.861C51.8673 101.691 51.7673 101.536 51.6402 101.405C51.513 101.274 51.3612 101.17 51.1935 101.098C51.0258 101.026 50.8455 100.988 50.663 100.985C50.4805 100.983 50.2993 101.017 50.13 101.086L29.4589 109.265C29.159 109.384 28.9099 109.603 28.7546 109.886C28.5993 110.169 28.5475 110.497 28.6083 110.813C28.669 111.13 28.8383 111.415 29.0871 111.621C29.3359 111.826 29.6485 111.938 29.971 111.937V111.964Z" fill="#407BFF"/>
<path opacity="0.3" d="M29.971 111.964C30.1438 111.962 30.3149 111.93 30.4762 111.868L51.1473 103.66C51.3175 103.594 51.473 103.495 51.6048 103.369C51.7366 103.242 51.8421 103.091 51.9152 102.924C51.9884 102.757 52.0277 102.577 52.031 102.394C52.0343 102.212 52.0015 102.031 51.9344 101.861C51.8673 101.691 51.7673 101.536 51.6402 101.405C51.513 101.274 51.3612 101.17 51.1935 101.098C51.0258 101.026 50.8455 100.988 50.663 100.985C50.4805 100.983 50.2993 101.017 50.13 101.086L29.4589 109.265C29.159 109.384 28.9099 109.603 28.7546 109.886C28.5993 110.169 28.5475 110.497 28.6083 110.813C28.669 111.13 28.8383 111.415 29.0871 111.621C29.3359 111.826 29.6485 111.938 29.971 111.937V111.964Z" fill="black"/>
</svg>
