<svg width="29" height="29" viewBox="0 0 29 29" fill="none" xmlns="http://www.w3.org/2000/svg">
<path d="M14.5 29C22.5081 29 29 22.5081 29 14.5C29 6.49187 22.5081 0 14.5 0C6.49187 0 0 6.49187 0 14.5C0 22.5081 6.49187 29 14.5 29Z" fill="url(#paint0_linear_8731_30486)"/>
<path d="M18.6848 17.6358L22.7872 15.267C23.0044 15.1415 23.1388 14.9083 23.1388 14.6572V9.9202C23.1388 9.66976 23.0038 9.43589 22.7872 9.31038L18.6848 6.94157C18.4675 6.81606 18.1981 6.81665 17.9809 6.94157L13.8785 9.31038C13.6612 9.43589 13.5268 9.66976 13.5268 9.9202V18.386L10.65 20.0467L7.77325 18.386V15.064L10.65 13.4033L12.5476 14.4986V12.2701L11.0017 11.3778C10.8952 11.3163 10.7732 11.2837 10.6495 11.2837C10.5257 11.2837 10.4038 11.3163 10.2978 11.3778L6.19543 13.7466C5.97815 13.8722 5.84375 14.1054 5.84375 14.3565V19.0935C5.84375 19.3439 5.97874 19.5778 6.19543 19.7033L10.2978 22.0721C10.5145 22.197 10.7844 22.197 11.0017 22.0721L15.1041 19.7039C15.3214 19.5784 15.4558 19.3445 15.4558 19.0941V10.6283L15.5079 10.5987L18.3325 8.96758L21.2093 10.6283V13.9503L18.3325 15.611L16.438 14.5169V16.7454L17.9809 17.6364C18.1981 17.7614 18.4675 17.7614 18.6848 17.6364V17.6358Z" fill="white"/>
<defs>
<linearGradient id="paint0_linear_8731_30486" x1="-5.29972" y1="2.38349" x2="24.6381" y2="20.704" gradientUnits="userSpaceOnUse">
<stop stop-color="#A229C5"/>
<stop offset="1" stop-color="#7B3FE4"/>
</linearGradient>
</defs>
</svg>
