<svg width="152" height="148" viewBox="0 0 152 148" fill="none" xmlns="http://www.w3.org/2000/svg">
<path d="M75.6685 31.3232L74.9796 30.5816C74.8884 30.4854 74.7743 30.4139 74.648 30.3738C74.5217 30.3336 74.3872 30.3261 74.2572 30.352L73.2094 30.5816C73.0457 30.6142 72.8963 30.6972 72.7821 30.8191C72.668 30.9409 72.5949 31.0955 72.5731 31.261L72.0469 35.5668L73.6448 36.184C75.5968 35.3324 75.4963 32.7585 75.4963 32.7585L75.7738 32.2466C75.8562 32.1013 75.8904 31.9337 75.8714 31.7677C75.8525 31.6018 75.7815 31.4462 75.6685 31.3232Z" fill="#FFB573"/>
<path d="M56.3485 44.2829C56.3485 44.2829 57.8842 44.3738 58.7836 44.3547C59.6831 44.3355 60.5921 44.326 61.4772 44.2733C62.3623 44.2207 63.2378 44.1537 64.0415 44.0437C64.4089 43.9945 64.7731 43.9242 65.1323 43.8332L65.4768 43.7231C65.5821 43.6753 65.4768 43.7566 65.5246 43.7231C65.7736 43.4744 66.0054 43.2091 66.2184 42.929C66.4815 42.5941 66.7446 42.2352 67.0078 41.8716C67.534 41.1396 68.0507 40.379 68.5722 39.6135L71.6963 34.9775L74.1411 36.2741C73.7823 37.1687 73.3899 38.0299 73.0024 38.9006C72.6149 39.7714 72.1843 40.6229 71.7633 41.4793C71.3423 42.3357 70.883 43.1873 70.395 44.0389C70.151 44.4647 69.9166 44.8905 69.62 45.3259C69.3089 45.8272 68.9534 46.2995 68.5579 46.7372C68.2388 47.0694 67.869 47.3488 67.4623 47.5649C67.1541 47.7299 66.8343 47.8722 66.5054 47.9907C65.9687 48.1885 65.4188 48.3484 64.8596 48.4691C63.8617 48.6947 62.8501 48.8545 61.8312 48.9475C59.8811 49.146 57.9206 49.2227 55.9609 49.1772L56.3485 44.2829Z" fill="#407BFF"/>
<path opacity="0.7" d="M74.1632 36.2842C73.8044 37.1741 73.4169 38.0353 73.0294 38.906C72.6418 39.7767 72.2113 40.6283 71.7855 41.4895C71.3597 42.3507 70.9099 43.1927 70.422 44.0443C70.178 44.4701 69.9435 44.8959 69.6421 45.3312C69.3345 45.8337 68.9805 46.3062 68.5848 46.7426C68.258 47.0749 67.88 47.3527 67.4653 47.5655C67.1576 47.7329 66.8378 47.8768 66.5084 47.9961C65.9725 48.1912 65.4243 48.351 64.8675 48.4745C63.8691 48.6976 62.8576 48.8574 61.839 48.9529C61.4132 48.996 60.9922 49.0295 60.576 49.063C59.0402 49.173 57.5284 49.2113 55.9688 49.1778L56.0453 48.1731L56.3467 44.3122C56.3467 44.3122 57.8777 44.4079 58.7771 44.384C59.6765 44.36 60.5855 44.3552 61.4754 44.3026C62.3653 44.25 63.236 44.1878 64.0398 44.073C64.4077 44.0276 64.7722 43.9572 65.1306 43.8625C65.2477 43.8335 65.3628 43.7967 65.475 43.7524C65.5803 43.7046 65.475 43.7907 65.5229 43.7524C65.7718 43.5037 66.0036 43.2384 66.2166 42.9583C66.4797 42.6234 66.7429 42.2645 67.0012 41.9009C67.5275 41.1689 68.049 40.4083 68.5705 39.6428L71.6946 35.0068L74.1632 36.2842Z" fill="white"/>
<path opacity="0.1" d="M60.576 49.0338C59.0402 49.1439 57.5284 49.1822 55.9688 49.1487L56.0453 48.144L56.4185 47.2637C57.9809 47.2948 59.4707 47.9292 60.576 49.0338Z" fill="black"/>
<path d="M30.7656 130.093C30.7656 130.093 26.4598 127.113 26.699 125.113C26.7079 125.067 26.7071 125.019 26.6968 124.973C26.6864 124.928 26.6666 124.885 26.6388 124.847C26.6109 124.809 26.5755 124.777 26.5348 124.754C26.4942 124.731 26.4491 124.716 26.4024 124.711L22.7329 124.156C22.6432 124.139 22.5505 124.148 22.4657 124.182C22.3809 124.216 22.3076 124.273 22.2545 124.347L20.1016 127.404L21.0584 127.754L21.5799 127.39L21.8287 128.036C27.1153 129.95 29.4213 130.72 30.5886 130.768C30.9331 130.356 30.7656 130.093 30.7656 130.093Z" fill="black"/>
<path d="M55.1547 73.8312C55.1547 73.8312 54.9346 74.4053 54.5471 75.4004C54.1308 76.4769 53.5184 78.0461 52.7817 79.912C52.3032 81.1559 51.7435 82.5337 51.155 83.9834C48.4519 90.6813 44.9594 99.0107 42.6486 103.206C38.2232 111.234 26.6932 126.482 26.6932 126.482L22.0859 124.798C22.0859 124.798 30.3818 109.096 34.568 101.14C36.155 97.9271 37.5543 94.6252 38.759 91.2506C39.4528 89.3991 40.1417 87.4711 40.8067 85.5622C41.1081 84.701 41.4047 83.8398 41.6918 82.993C42.4525 80.754 43.1653 78.5963 43.7921 76.673C43.8686 76.4338 43.9452 76.1946 44.0217 75.965C44.2753 75.1756 44.5001 74.4292 44.7298 73.7403C45.6292 70.908 46.189 69.0422 46.2081 68.9561L50.3178 71.1951L55.1547 73.8312Z" fill="#263238"/>
<path opacity="0.3" d="M54.5433 75.4004C54.1271 76.4768 53.5147 78.0461 52.7779 79.9119C52.2995 81.1558 51.7397 82.5337 51.1513 83.9833C47.3908 84.7392 43.5634 85.2511 40.8125 85.5621C41.1139 84.701 41.4105 83.8398 41.6976 82.993C42.4583 80.7539 43.1711 78.5962 43.7979 76.673C43.8744 76.4338 43.951 76.1945 44.0275 75.9649C44.2811 75.1755 44.5059 74.4292 44.7356 73.7402C47.5009 74.1182 51.1943 74.6827 54.5433 75.4004Z" fill="black"/>
<path d="M40.4297 46.8485C41.092 49.2538 41.5166 51.7184 41.6975 54.2067C41.865 56.1921 41.9272 58.1441 41.9367 59.8999C41.9463 61.6557 41.8889 63.225 41.8315 64.421C41.7549 65.9616 41.664 66.9041 41.664 66.9041L56.1986 67.6552C60.5618 51.8672 56.3421 44.2889 56.3421 44.2889C55.0472 44.1755 53.7464 44.1452 52.4477 44.198C52.1798 44.198 51.9023 44.2267 51.6248 44.2507C49.4371 44.5022 47.2661 44.8824 45.123 45.3893C44.7355 45.4754 44.3432 45.5759 43.9605 45.6764C42.0659 46.1931 40.4297 46.8485 40.4297 46.8485Z" fill="#407BFF"/>
<path opacity="0.7" d="M56.2094 67.6489L41.6749 66.9026C41.6749 66.9026 41.7658 65.9457 41.8423 64.4148C41.8423 63.9651 41.8806 63.4579 41.8997 62.8982C41.9284 62.0035 41.9476 60.9845 41.9476 59.8937C41.9476 59.3626 41.9476 58.8124 41.9189 58.2479C41.9189 58.157 41.9189 58.0661 41.9189 57.9752C41.8949 57.0805 41.8519 56.1524 41.7897 55.2099C41.761 54.875 41.7371 54.5401 41.7084 54.2052C41.7084 53.9421 41.6653 53.6741 41.6414 53.411C41.5696 52.7412 41.4931 52.0714 41.3974 51.4112C41.3735 51.2294 41.3447 51.0476 41.316 50.8706C41.273 50.5692 41.2251 50.2773 41.1725 49.9807C40.9867 48.9207 40.744 47.8714 40.4453 46.8375C40.4453 46.8375 42.0863 46.1964 43.9857 45.6749C44.3636 45.5744 44.7559 45.4739 45.1434 45.3878C47.2871 44.8841 49.4579 44.5039 51.6452 44.2492C51.9275 44.2492 52.2002 44.2061 52.4729 44.2013C53.7715 44.1457 55.0724 44.1745 56.3673 44.2875C56.3673 44.2875 60.5726 51.837 56.2094 67.6489Z" fill="white"/>
<path d="M65.1998 105.474C65.1998 105.474 61.047 102.249 61.4298 100.269C61.441 100.223 61.4427 100.175 61.4349 100.129C61.4271 100.083 61.4099 100.039 61.3844 99.9991C61.3588 99.9597 61.3255 99.9259 61.2864 99.8998C61.2473 99.8737 61.2033 99.8559 61.1571 99.8475L57.521 99.082C57.4336 99.0623 57.3424 99.0676 57.2578 99.0972C57.1732 99.1268 57.0987 99.1795 57.0426 99.2495L54.7031 102.163L55.66 102.57L56.2006 102.235L56.4111 102.89C61.5829 105.105 63.841 106.01 65.0227 106.124C65.3529 105.732 65.1998 105.474 65.1998 105.474Z" fill="black"/>
<path d="M48.6236 79.9972H48.9633L66.3923 82.5328L56.4602 98.9954L61.4262 100.909C61.4262 100.909 79.3911 81.5425 75.3771 77.1266C72.076 73.4954 55.9052 71.285 55.9052 71.285L56.4363 67.4959L41.4903 64.5488C35.0937 78.5284 46.485 79.8584 48.6236 79.9972Z" fill="#263238"/>
<path d="M41.3158 66.0181L41 65.9559L41.2871 64.9512L41.5693 65.0038L41.3158 66.0181Z" fill="#263238"/>
<path d="M53.0745 68.2955L46.6875 67.0611L46.9363 66.0469L53.2993 67.2812L53.0745 68.2955Z" fill="#263238"/>
<path d="M53.8012 67.377L56.4995 67.8984L56.3177 68.9223L53.5859 68.3912L53.8012 67.377Z" fill="#263238"/>
<path d="M42.0565 65.0996L46.4484 65.9512L46.1901 66.9607L41.8125 66.1139L42.0565 65.0996Z" fill="#263238"/>
<g opacity="0.2">
<path d="M41.3158 66.0181L41 65.9559L41.2871 64.9512L41.5693 65.0038L41.3158 66.0181Z" fill="white"/>
<path d="M53.0823 68.2955L46.6953 67.0611L46.9441 66.0469L53.3071 67.2812L53.0823 68.2955Z" fill="white"/>
<path d="M53.7934 67.377L56.4917 67.8984L56.3099 68.9223L53.5781 68.3912L53.7934 67.377Z" fill="white"/>
<path d="M42.0643 65.0996L46.4562 65.9512L46.1979 66.9607L41.8203 66.1139L42.0643 65.0996Z" fill="white"/>
</g>
<path d="M50.9766 67.9988H50.9192L49.3212 67.7117C49.2765 67.7047 49.2338 67.6883 49.1958 67.6635C49.1579 67.6388 49.1256 67.6063 49.1012 67.5682C49.0756 67.5308 49.0585 67.4884 49.0511 67.4438C49.0437 67.3991 49.0461 67.3534 49.0581 67.3098L49.216 66.6687C49.2354 66.5862 49.2863 66.5145 49.3578 66.469C49.4293 66.4234 49.5157 66.4075 49.5987 66.4247L51.1823 66.7309C51.2264 66.738 51.2684 66.7545 51.3056 66.7793C51.3427 66.804 51.3741 66.8365 51.3976 66.8745C51.4219 66.9115 51.4383 66.9531 51.4457 66.9967C51.4531 67.0404 51.4514 67.0851 51.4407 67.128L51.2971 67.7452C51.2799 67.8173 51.239 67.8816 51.1808 67.9276C51.1227 67.9736 51.0507 67.9986 50.9766 67.9988ZM49.5413 66.6927C49.5303 66.6933 49.5198 66.6973 49.5112 66.7041C49.5027 66.711 49.4964 66.7204 49.4935 66.7309L49.3356 67.372C49.333 67.3781 49.3316 67.3846 49.3316 67.3912C49.3316 67.3978 49.333 67.4043 49.3356 67.4103C49.3409 67.4125 49.3466 67.4137 49.3523 67.4137C49.3581 67.4137 49.3638 67.4125 49.3691 67.4103L50.967 67.6974C50.9794 67.6981 50.9918 67.6947 51.0021 67.6878C51.0125 67.6809 51.0203 67.6708 51.0244 67.6591L51.168 67.0419C51.1709 67.036 51.1724 67.0294 51.1724 67.0228C51.1724 67.0161 51.1709 67.0096 51.168 67.0036C51.1636 67.0011 51.1586 66.9998 51.1536 66.9998C51.1486 66.9998 51.1436 67.0011 51.1393 67.0036L49.5557 66.6927H49.5413Z" fill="white"/>
<path d="M49.9867 67.2859H49.9628L49.4844 67.1997C49.4661 67.1969 49.4485 67.1903 49.4327 67.1805C49.4169 67.1707 49.4033 67.1579 49.3926 67.1427C49.3819 67.1275 49.3743 67.1104 49.3704 67.0922C49.3664 67.0741 49.3661 67.0553 49.3696 67.0371C49.3718 67.0184 49.3779 67.0005 49.3875 66.9843C49.3971 66.9682 49.41 66.9543 49.4253 66.9435C49.4407 66.9326 49.4581 66.9252 49.4765 66.9215C49.4949 66.9179 49.5139 66.9181 49.5322 66.9223L50.0107 67.0084C50.029 67.0113 50.0466 67.0178 50.0624 67.0276C50.0781 67.0374 50.0918 67.0503 50.1025 67.0654C50.1132 67.0806 50.1207 67.0978 50.1247 67.1159C50.1286 67.134 50.1289 67.1528 50.1255 67.171C50.1189 67.2031 50.1016 67.232 50.0764 67.2529C50.0511 67.2738 50.0195 67.2854 49.9867 67.2859Z" fill="white"/>
<path d="M46.6426 38.7871L50.4365 41.9351C50.0681 43.4757 50.714 44.8966 51.4603 45.1597C51.4603 45.1597 52.0153 46.4802 50.9484 46.7003C48.7812 47.15 46.3125 45.0545 46.3125 45.0545C47.4607 43.8249 47.0445 40.7534 46.6426 38.7871Z" fill="#EBB376"/>
<path opacity="0.2" d="M48.1877 40.0684L50.4363 41.9294C50.3411 42.2868 50.277 42.6518 50.245 43.0202C49.4029 42.9102 48.2404 42.0108 48.1447 41.1305C48.0969 40.7766 48.1115 40.4172 48.1877 40.0684Z" fill="black"/>
<path d="M49.9979 32.5669C50.9165 33.141 52.1604 34.8681 50.6151 35.2844C49.0697 35.7006 48.4143 31.5813 49.9979 32.5669Z" fill="#263238"/>
<path d="M45.2419 38.4706C46.8494 40.5852 47.6819 41.9105 49.5478 42.298C52.3561 42.8721 54.3942 40.0111 53.4517 37.4468C52.6001 35.1407 50.1027 32.0645 47.3805 32.6625C46.7777 32.7939 46.2177 33.0751 45.7524 33.4801C45.2871 33.8852 44.9314 34.401 44.7182 34.98C44.505 35.5589 44.4413 36.1823 44.5328 36.7924C44.6244 37.4025 44.8682 37.9797 45.2419 38.4706Z" fill="#FFB573"/>
<path d="M45.7246 36.1597L43.8109 33.9111C43.8109 33.9111 41.2609 35.7866 42.4187 36.9204C41.658 38.7145 44.6864 41.2262 47.3369 40.7095C47.6479 39.0877 45.2845 36.3224 45.2845 36.3224C45.4338 36.2755 45.5807 36.2212 45.7246 36.1597Z" fill="#263238"/>
<path d="M45.6225 40.8774C45.8809 41.0835 46.1776 41.2361 46.4954 41.3265C46.8133 41.4168 47.1459 41.4431 47.474 41.4037C48.3496 41.2936 48.4309 40.4181 47.9285 39.7627C47.4262 39.1072 46.4263 38.5236 45.6799 38.9637C45.5198 39.0644 45.3869 39.203 45.2929 39.3672C45.1989 39.5314 45.1468 39.7162 45.1411 39.9053C45.1355 40.0944 45.1764 40.2819 45.2604 40.4515C45.3443 40.621 45.4687 40.7673 45.6225 40.8774Z" fill="#FFB573"/>
<path d="M48.996 36.8007C49.1156 36.9777 49.3117 37.059 49.4265 36.9825C49.5414 36.9059 49.5414 36.6906 49.4265 36.504C49.3117 36.3174 49.1156 36.2457 48.996 36.3222C48.8763 36.3988 48.8763 36.638 48.996 36.8007Z" fill="#263238"/>
<path d="M51.0194 35.4424C51.1438 35.6242 51.3352 35.7055 51.45 35.6242C51.5648 35.5428 51.5648 35.3323 51.45 35.1457C51.3352 34.9591 51.139 34.8826 51.0194 34.9639C50.8998 35.0453 50.8998 35.2606 51.0194 35.4424Z" fill="#263238"/>
<path d="M50.4375 35.9678C51.0134 36.3508 51.6398 36.6519 52.2986 36.8624C52.1742 37.3409 51.5427 37.5849 51.5427 37.5849L50.4375 35.9678Z" fill="#ED893E"/>
<path d="M49.8737 38.8054C49.7898 38.8495 49.7097 38.9007 49.6345 38.9585C49.6234 38.97 49.6172 38.9855 49.6172 39.0015C49.6172 39.0176 49.6234 39.033 49.6345 39.0446C49.6399 39.0507 49.6465 39.0556 49.6539 39.0589C49.6614 39.0623 49.6694 39.064 49.6776 39.064C49.6857 39.064 49.6938 39.0623 49.7012 39.0589C49.7086 39.0556 49.7152 39.0507 49.7206 39.0446C49.9338 38.8805 50.1831 38.7697 50.4477 38.7215C50.7123 38.6732 50.9846 38.6888 51.242 38.7671C51.2498 38.7701 51.2582 38.7715 51.2666 38.7712C51.275 38.7709 51.2833 38.7689 51.2909 38.7653C51.2985 38.7618 51.3053 38.7567 51.3108 38.7504C51.3164 38.7441 51.3207 38.7368 51.3233 38.7288C51.3297 38.7136 51.3297 38.6965 51.3234 38.6812C51.3172 38.666 51.3051 38.6538 51.2899 38.6475C51.0556 38.5754 50.809 38.5522 50.5654 38.5794C50.3218 38.6065 50.0864 38.6835 49.8737 38.8054Z" fill="#263238"/>
<path d="M47.6127 36.2269C47.6351 36.2282 47.6576 36.2235 47.6777 36.2135C47.6978 36.2034 47.715 36.1882 47.7275 36.1695C47.8117 36.035 47.926 35.9218 48.0613 35.8388C48.1966 35.7558 48.3492 35.7052 48.5073 35.6911C48.5242 35.6918 48.5412 35.6889 48.5569 35.6826C48.5726 35.6763 48.5869 35.6668 48.5986 35.6545C48.6104 35.6423 48.6194 35.6277 48.6251 35.6118C48.6308 35.5958 48.6331 35.5788 48.6317 35.5619C48.6317 35.5289 48.6186 35.4973 48.5953 35.4739C48.5719 35.4506 48.5403 35.4375 48.5073 35.4375C48.3051 35.4525 48.1094 35.5155 47.9364 35.6211C47.7633 35.7268 47.6179 35.8721 47.5122 36.0451C47.4941 36.0737 47.4879 36.1083 47.4951 36.1414C47.5023 36.1746 47.5221 36.2035 47.5505 36.2221C47.5702 36.23 47.5919 36.2316 47.6127 36.2269Z" fill="#263238"/>
<path d="M51.04 33.8109C51.0472 33.7859 51.0472 33.7594 51.04 33.7344C51.03 33.7023 51.008 33.6754 50.9785 33.6593C50.949 33.6432 50.9144 33.6393 50.8821 33.6483C50.6876 33.6973 50.5079 33.7925 50.358 33.9257C50.2081 34.059 50.0925 34.2264 50.0209 34.4137C50.0115 34.4461 50.0147 34.4808 50.0298 34.511C50.0448 34.5411 50.0707 34.5645 50.1023 34.5764C50.118 34.5816 50.1345 34.5836 50.151 34.5823C50.1675 34.581 50.1836 34.5764 50.1983 34.5689C50.213 34.5613 50.226 34.5509 50.2366 34.5382C50.2473 34.5255 50.2553 34.5109 50.2601 34.4951C50.3177 34.3464 50.4104 34.2138 50.5304 34.1088C50.6504 34.0038 50.794 33.9295 50.9491 33.8923C50.9699 33.8876 50.9893 33.8777 51.0052 33.8635C51.0211 33.8493 51.0331 33.8311 51.04 33.8109Z" fill="#263238"/>
<path d="M45.2703 36.3224C45.2703 36.3224 50.3225 34.1982 50.6334 31.7773C50.9444 29.3565 48.8059 30.3421 48.8059 30.3421C48.8059 30.3421 49.7962 30.2751 49.7005 30.9927C49.7005 30.9927 47.9925 29.8302 46.3515 30.8301C46.5739 30.8303 46.7935 30.8798 46.9945 30.9749C47.1955 31.07 47.3729 31.2084 47.5141 31.3802C46.3255 31.6801 45.2105 32.219 44.2369 32.9638C42.5194 34.2556 39.4048 38.8532 45.2703 36.3224Z" fill="#263238"/>
<path opacity="0.3" d="M55.9134 71.2472L47.6797 70.2904C50.4687 69.9218 53.2854 69.8065 56.0952 69.9459L55.9134 71.2472Z" fill="black"/>
<path opacity="0.1" d="M41.7861 55.2113C41.7574 54.8764 41.7335 54.5415 41.7048 54.2066C41.7048 53.9435 41.6617 53.6755 41.6378 53.4124C41.5661 52.7426 41.4895 52.0728 41.3938 51.4126C41.3699 51.2308 41.3412 51.049 41.3125 50.872C41.5394 50.6924 41.7811 50.5324 42.0349 50.3936C42.2973 51.9988 42.2125 53.6416 41.7861 55.2113Z" fill="black"/>
<path d="M28.0681 66.9414L26.6328 70.2904L29.7282 71.0559C29.7282 71.0559 31.0582 68.8503 29.7617 67.1663L28.0681 66.9414Z" fill="#EBB376"/>
<path d="M26.8607 72.9076L29.3054 72.9268L29.736 71.0848L26.6406 70.3193L26.8607 72.9076Z" fill="#EBB376"/>
<path d="M41.993 49.154C42.2083 51.2591 41.4859 52.1155 41.4859 52.1155C41.4859 52.1155 39.4478 53.3977 38.5627 54.0531C37.8116 54.6224 37.0748 55.1965 36.3763 55.7706C36.0318 56.0625 35.6969 56.3543 35.3908 56.6462C35.1182 56.902 34.8625 57.1753 34.6253 57.4643C34.5375 57.586 34.4561 57.7122 34.3813 57.8422C34.2952 57.981 34.2043 58.1915 34.1086 58.3637C33.922 58.7465 33.7354 59.1579 33.5584 59.5837C33.2043 60.4401 32.8695 61.3299 32.5537 62.2342C31.8887 64.033 31.2715 65.8893 30.64 67.7121L27.8125 67.0376C28.0996 65.0569 28.4871 63.1193 28.9368 61.1625C29.1712 60.2056 29.4152 59.2105 29.7358 58.2154C29.8841 57.737 30.0515 57.2155 30.2429 56.6988C30.3577 56.4261 30.4534 56.1821 30.5969 55.8903C30.7364 55.5833 30.8962 55.286 31.0754 55.0004C31.4165 54.4927 31.7973 54.0128 32.214 53.5651C32.592 53.1537 32.9699 52.7757 33.3527 52.4073C34.1134 51.6801 34.8932 51.0151 35.6874 50.374C37.271 49.0871 38.8593 47.9101 40.5625 46.7715C40.5769 46.7858 41.8016 47.2499 41.993 49.154Z" fill="#407BFF"/>
<path opacity="0.7" d="M41.993 49.154C42.2083 51.2591 41.4859 52.1155 41.4859 52.1155C41.4859 52.1155 39.4478 53.3977 38.5627 54.0531C37.8116 54.6224 37.0748 55.1965 36.3763 55.7706C36.0318 56.0625 35.6969 56.3543 35.3908 56.6462C35.1182 56.902 34.8625 57.1753 34.6253 57.4643C34.5375 57.586 34.4561 57.7122 34.3813 57.8422C34.2952 57.981 34.2043 58.1915 34.1086 58.3637C33.922 58.7465 33.7354 59.1579 33.5584 59.5837C33.2043 60.4401 32.8695 61.3299 32.5537 62.2342C31.8887 64.033 31.2715 65.8893 30.64 67.7121L27.8125 67.0376C28.0996 65.0569 28.4871 63.1193 28.9368 61.1625C29.1712 60.2056 29.4152 59.2105 29.7358 58.2154C29.8841 57.737 30.0515 57.2155 30.2429 56.6988C30.3577 56.4261 30.4534 56.1821 30.5969 55.8903C30.7364 55.5833 30.8962 55.286 31.0754 55.0004C31.4165 54.4927 31.7973 54.0128 32.214 53.5651C32.592 53.1537 32.9699 52.7757 33.3527 52.4073C34.1134 51.6801 34.8932 51.0151 35.6874 50.374C37.271 49.0871 38.8593 47.9101 40.5625 46.7715C40.5769 46.7858 41.8016 47.2499 41.993 49.154Z" fill="white"/>
<path d="M48.4192 46.3315L49.4813 48.0012C49.4813 48.0012 45.7736 52.4984 38.6737 53.9815L38.1953 55.4168L39.7071 55.8139C39.7071 55.8139 47.3619 53.8284 50.4334 48.0778L52.0122 46.3172L50.1511 45.6904L48.4192 46.3315Z" fill="#407BFF"/>
<path d="M44.9766 45.3265L46.7085 43.8147L50.1483 45.6997L50.5502 43.6377L52.3682 44.6807L52.8897 47.3551L50.3493 46.2547L48.0815 48.2832L44.9766 45.3265Z" fill="#407BFF"/>
<path opacity="0.6" d="M44.9766 45.3265L46.7085 43.8147L50.1483 45.6997L50.5502 43.6377L52.3682 44.6807L52.8897 47.3551L50.3493 46.2547L48.0815 48.2832L44.9766 45.3265Z" fill="white"/>
<path d="M92.4311 15.4004C92.4311 15.4004 89.2113 19.3904 85.9484 19.0603C82.6856 18.7302 81.0158 20.0555 81.0158 20.0555L80.6953 21.6486L82.4463 21.4094C82.4463 21.4094 82.4463 20.1464 85.8527 20.2899C89.2591 20.4334 91.8139 17.5055 92.809 16.1754L92.4311 15.4004Z" fill="#407BFF"/>
<path d="M115.541 8.76961L115.474 8.45385C115.445 8.29968 115.4 8.14896 115.34 8.00413C115.169 7.5719 114.902 7.18416 114.56 6.87027C114.135 6.48728 113.637 6.19433 113.096 6.0091C112.412 5.76693 111.702 5.60634 110.981 5.53068C110.345 5.45891 109.737 5.42542 109.139 5.41107C107.948 5.37758 106.8 5.41107 105.666 5.50676C103.408 5.65675 101.159 5.92665 98.9297 6.31529L99.7526 11.0278C101.815 10.7025 103.968 10.401 106.049 10.1857C107.092 10.0757 108.13 10.0135 109.13 9.98003C109.608 9.98003 110.12 9.98003 110.565 9.98003C110.855 9.99557 111.144 10.0275 111.431 10.0757C111.441 10.251 111.441 10.4267 111.431 10.602C111.369 11.5234 111.197 12.4341 110.919 13.3146C110.313 15.3043 109.54 17.2392 108.608 19.0988L110.881 20.6106C112.333 18.792 113.553 16.7991 114.512 14.6782C115.037 13.5195 115.4 12.2945 115.593 11.0373C115.696 10.2834 115.678 9.51796 115.541 8.76961Z" fill="#407BFF"/>
<path opacity="0.7" d="M115.561 11.0328C115.408 12.0823 115.127 13.109 114.723 14.0899C114.647 14.286 114.565 14.4822 114.484 14.6736C113.524 16.7932 112.302 18.7845 110.848 20.6013L108.604 19.099C109.545 17.2532 110.333 15.333 110.958 13.3579C111.148 12.731 111.293 12.0915 111.393 11.4442C111.434 11.1844 111.46 10.9224 111.47 10.6596C111.48 10.4843 111.48 10.3086 111.47 10.1333C111.183 10.0851 110.894 10.0532 110.604 10.0376C110.126 10.0089 109.647 10.0089 109.169 10.0376H109.059C108.102 10.0711 107.092 10.1381 106.083 10.2386C104.064 10.4491 101.988 10.717 99.983 11.0567L99.7916 11.0854L98.9688 6.36812C101.197 5.98181 103.444 5.71193 105.7 5.55958C106.839 5.48782 107.987 5.43041 109.178 5.4639C109.776 5.4639 110.379 5.51174 111.02 5.58351C111.741 5.66148 112.451 5.82201 113.135 6.06193C113.675 6.24894 114.173 6.54169 114.599 6.9231C114.942 7.23698 115.208 7.62473 115.379 8.05696C115.436 8.20264 115.481 8.35313 115.513 8.50668L115.58 8.82244C115.687 9.55582 115.68 10.3014 115.561 11.0328Z" fill="white"/>
<path opacity="0.1" d="M109.021 10.009C108.064 10.0425 107.055 10.1094 106.045 10.2099C104.026 10.4204 101.95 10.6883 99.9453 11.028C100.677 9.22915 101.428 7.41113 101.428 7.41113C104.096 7.81052 106.668 8.69073 109.021 10.009Z" fill="black"/>
<path opacity="0.1" d="M114.728 14.09C114.652 14.2862 114.571 14.4823 114.489 14.6737C113.529 16.7933 112.307 18.7846 110.853 20.6014L108.609 19.0991C109.55 17.2534 110.338 15.3332 110.963 13.358C111.153 12.7311 111.298 12.0916 111.399 11.4443C112.576 12.2371 113.69 13.1218 114.728 14.09Z" fill="black"/>
<path d="M84.1524 9.71749C84.2864 9.88016 84.3008 10.0859 84.1955 10.1959C84.0902 10.306 83.8941 10.1959 83.7601 10.0524C83.6262 9.90886 83.6118 9.67922 83.7219 9.59788C83.8319 9.51655 84.0233 9.53091 84.1524 9.71749Z" fill="#263238"/>
<path d="M84.3203 10.0713C84.5225 10.734 84.632 11.4214 84.6456 12.1142C84.8226 12.1044 84.9954 12.0566 85.1523 11.974C85.3091 11.8914 85.4464 11.7761 85.5546 11.6357L84.3203 10.0713Z" fill="#DE5753"/>
<path d="M84.0293 8.32008C84.0399 8.30859 84.048 8.29497 84.0529 8.28011C84.0579 8.26526 84.0596 8.24953 84.058 8.23396C84.0574 8.21762 84.0535 8.20156 84.0467 8.18671C84.0399 8.17185 84.0302 8.15848 84.0182 8.14738C84.0062 8.13627 83.9921 8.12763 83.9768 8.12196C83.9615 8.1163 83.9452 8.11371 83.9288 8.11435C83.7326 8.11887 83.5403 8.17031 83.368 8.26436C83.1957 8.35841 83.0484 8.49235 82.9385 8.65497C82.9223 8.68374 82.9177 8.71762 82.9257 8.74966C82.9337 8.78169 82.9537 8.80944 82.9815 8.82721C83.0096 8.84314 83.0427 8.84756 83.074 8.83953C83.1052 8.83149 83.1321 8.81164 83.149 8.78415C83.2382 8.65575 83.3568 8.55054 83.495 8.4773C83.6332 8.40406 83.7868 8.36492 83.9432 8.36313C83.9598 8.36262 83.9761 8.3585 83.991 8.35107C84.0058 8.34363 84.0189 8.33306 84.0293 8.32008Z" fill="#263238"/>
<path d="M88.9141 7.13867C90.4976 8.27732 93.5213 10.081 95.2388 9.39684C95.2388 9.39684 96.7842 10.6838 95.301 13.9084C93.6696 17.4583 92.7606 14.7982 92.7606 14.7982C93.1864 12.6453 91.7272 12.0377 90.2202 11.7555L88.9141 7.13867Z" fill="#E4897B"/>
<path d="M89.3998 5.00961C90.8781 7.1386 91.8541 8.31074 91.6484 10.1622C91.347 12.9515 88.1032 13.9896 86.0173 12.3582C84.1371 10.8751 82.032 7.64095 83.3812 5.26318C83.6765 4.73677 84.1016 4.29461 84.6159 3.9787C85.1302 3.66279 85.7167 3.48362 86.3198 3.45822C86.9228 3.43281 87.5224 3.562 88.0615 3.83353C88.6005 4.10506 89.0612 4.50991 89.3998 5.00961Z" fill="#E4897B"/>
<path d="M91.7791 8.52127C91.5543 9.73169 87.4733 11.3918 85.6505 8.77962C85.6505 8.77962 83.3349 8.77962 81.9427 7.34435C80.5505 5.90907 80.8519 4.44031 82.0958 3.61742C83.1962 2.89021 86.038 -2.45379 89.3487 1.35926C92.9417 1.23487 92.0518 7.01902 91.7791 8.52127Z" fill="#263238"/>
<path d="M84.9071 3.06288C84.9071 3.06288 82.7734 2.95763 81.5582 3.93362C80.343 4.9096 80.6731 7.91411 81.1467 8.47865C81.2585 8.63428 81.4011 8.76516 81.5657 8.86313C81.7304 8.96109 81.9135 9.02402 82.1036 9.04798C82.1036 9.04798 81.3811 8.67002 81.3811 8.09112C81.3811 8.09112 81.6969 8.83268 83.1465 9.04798C83.0333 8.95913 82.9426 8.84478 82.8819 8.71425C82.8212 8.58373 82.7922 8.44071 82.7973 8.29685C82.7973 8.29685 83.5819 9.31589 85.3999 8.29685C87.2179 7.2778 84.9071 3.06288 84.9071 3.06288Z" fill="#263238"/>
<path d="M86.7209 8.33061C87.0856 8.86257 87.2655 9.49966 87.2328 10.1438C87.1802 10.9906 86.4721 11.0576 85.9123 10.5218C85.3526 9.98596 84.8359 9.02432 85.166 8.31626C85.4961 7.60819 86.2712 7.69909 86.7209 8.33061Z" fill="#E4897B"/>
<path d="M90.9693 15.4007C90.9693 15.4007 90.5722 10.583 93.7154 7.87988L97.4615 8.22435C97.4615 8.22435 95.3038 13.4918 90.9693 15.4007Z" fill="#407BFF"/>
<path opacity="0.6" d="M90.9693 15.4007C90.9693 15.4007 90.5722 10.583 93.7154 7.87988L97.4615 8.22435C97.4615 8.22435 95.3038 13.4918 90.9693 15.4007Z" fill="white"/>
<path d="M101.766 26.2378C101.766 26.2378 96.1015 20.6737 89.8438 16.7841C89.8438 16.7841 94.0108 6.99075 99.2926 6.11523C99.2926 6.11523 112.942 10.2393 116.903 21.4248L101.766 26.2378Z" fill="#407BFF"/>
<path d="M102.492 60.157L100.052 61.1952L97.4062 55.6407L99.851 54.6025L102.492 60.157Z" fill="#E4897B"/>
<path d="M116.907 21.4102L115.472 36.7197C114.379 37.4079 113.164 37.8819 111.894 38.1167C108.908 38.8105 104.928 39.1262 101.488 39.3128C97.627 39.5233 94.455 39.5616 94.168 39.7912C93.4982 40.3175 102 57.8757 102 57.8757L97.9427 58.3828C97.9427 58.3828 87.2786 43.7526 85.896 38.6717C85.3889 36.7963 84.877 34.4472 88.3216 32.2513C91.3548 30.3376 102.646 28.8688 102.646 28.8688L101.775 26.2614L116.907 21.4102Z" fill="#263238"/>
<path opacity="0.2" d="M111.889 38.1026C108.904 38.7963 104.923 39.1121 101.483 39.2987C101.005 33.6533 103.876 28.2375 103.876 28.2375L107.914 27.2041L111.889 38.1026Z" fill="black"/>
<path d="M138.078 57.9092L138.513 60.5262L132.49 61.7892L132.055 59.1674L138.078 57.9092Z" fill="#E4897B"/>
<path d="M138.637 60.6221C138.627 60.6151 138.615 60.6113 138.603 60.6113C138.591 60.6113 138.579 60.6151 138.57 60.6221C138.558 60.6268 138.549 60.6348 138.542 60.645C138.535 60.6552 138.531 60.6672 138.531 60.6795C138.531 60.7274 138.57 61.7942 138.9 62.1148C138.96 62.1759 139.043 62.2103 139.129 62.2105C139.179 62.215 139.228 62.204 139.271 62.1792C139.314 62.1543 139.348 62.1168 139.368 62.0717C139.44 61.8947 139.306 61.5933 139.129 61.3015C138.986 61.0605 138.821 60.8331 138.637 60.6221ZM138.665 60.847C138.986 61.2297 139.335 61.8038 139.254 61.9952C139.254 62.0239 139.215 62.0574 139.129 62.0622C139.075 62.0611 139.024 62.0388 138.986 62C138.957 61.972 138.933 61.9397 138.914 61.9043C138.765 61.5709 138.68 61.212 138.665 60.847Z" fill="#407BFF"/>
<path d="M138.621 60.607C138.611 60.6015 138.601 60.5986 138.59 60.5986C138.579 60.5986 138.568 60.6015 138.559 60.607C138.559 60.607 137.961 61.0615 137.903 61.4921C137.885 61.6174 137.918 61.7448 137.994 61.8461C138.099 61.9848 138.2 61.98 138.267 61.9513C138.549 61.8365 138.702 60.9945 138.659 60.6452C138.659 60.6452 138.659 60.6452 138.659 60.6213C138.654 60.6162 138.648 60.6123 138.642 60.6098C138.635 60.6074 138.628 60.6064 138.621 60.607ZM138.028 61.5208C138.117 61.2303 138.296 60.9756 138.539 60.7935C138.539 61.1715 138.386 61.7504 138.219 61.8461C138.219 61.8461 138.162 61.87 138.095 61.7791C138.092 61.7681 138.092 61.7566 138.095 61.7456C138.046 61.6812 138.022 61.6013 138.028 61.5208Z" fill="#407BFF"/>
<path d="M138.178 60.5886L136.657 58.1199C136.631 58.0737 136.62 58.0202 136.627 57.9676C136.634 57.9149 136.658 57.8659 136.695 57.8281L138.427 56.144C138.469 56.1033 138.52 56.0727 138.576 56.0545C138.631 56.0362 138.69 56.0308 138.748 56.0386C138.806 56.0465 138.862 56.0673 138.91 56.0997C138.959 56.132 139 56.175 139.03 56.2254C139.566 57.1248 140.307 58.4405 140.996 59.5743C141.8 60.8852 142.57 61.9664 143.513 63.507C144.087 64.4351 143.307 65.2676 142.982 64.9422C141.503 63.4113 140.59 61.9951 138.676 61.0479C138.471 60.9429 138.299 60.7841 138.178 60.5886Z" fill="#263238"/>
<path d="M116.904 21.4102C116.904 21.4102 121.77 33.9114 113.555 38.7626C113.555 38.7626 113.45 53.211 115.526 54.9047C118.048 56.9619 136.529 58.0096 136.529 58.0096L136.371 62.6025C136.371 62.6025 116.584 64.2196 110.594 62.0715C103.575 59.5549 102.016 26.4527 102.016 26.4527L116.904 21.4102Z" fill="#263238"/>
<path opacity="0.2" d="M111.289 29.0842L114.241 28.1943C114.452 29.485 114.586 30.787 114.643 32.0935L113.275 33.2704L111.978 32.859C111.821 31.5886 111.591 30.3283 111.289 29.0842Z" fill="black"/>
<path d="M102.744 26.2471L103.127 27.4623L102.031 27.802L101.648 26.5963L102.744 26.2471Z" fill="#263238"/>
<path d="M107.785 24.6299L108.196 25.8881L103.675 27.2899L103.273 26.0747L107.785 24.6299Z" fill="#263238"/>
<path d="M113.415 22.8262L113.826 24.1418L108.769 25.7111L108.367 24.4432L113.415 22.8262Z" fill="#263238"/>
<path d="M117.528 22.9938L114.413 23.9602H114.408L113.992 22.6397L117.083 21.6494L117.528 22.9938Z" fill="#263238"/>
<g opacity="0.2">
<path d="M102.744 26.2471L103.127 27.4623L102.031 27.802L101.648 26.5963L102.744 26.2471Z" fill="white"/>
<path d="M107.777 24.6299L108.189 25.8881L103.667 27.2899L103.266 26.0747L107.777 24.6299Z" fill="white"/>
<path d="M113.415 22.8262L113.826 24.1418L108.769 25.7111L108.367 24.4432L113.415 22.8262Z" fill="white"/>
<path d="M117.528 22.9938L114.413 23.9602H114.408L113.992 22.6397L117.083 21.6494L117.528 22.9938Z" fill="white"/>
</g>
<path d="M99.2932 60.4209C99.3053 60.4175 99.3162 60.4108 99.3247 60.4015C99.3331 60.3922 99.3388 60.3806 99.341 60.3683C99.3435 60.355 99.3415 60.3413 99.3355 60.3292C99.3294 60.3171 99.3196 60.3073 99.3075 60.3013C99.2693 60.3013 98.3268 59.775 97.8723 59.9042C97.7892 59.9272 97.7186 59.9823 97.6761 60.0573C97.6479 60.0981 97.6328 60.1465 97.6328 60.196C97.6328 60.2456 97.6479 60.294 97.6761 60.3348C97.7909 60.4831 98.121 60.5214 98.4607 60.5118C98.7405 60.5079 99.0192 60.4775 99.2932 60.4209ZM99.0875 60.33C98.609 60.4113 97.9249 60.4257 97.7957 60.2582C97.7957 60.2343 97.7622 60.196 97.7957 60.1195C97.8072 60.0961 97.824 60.0757 97.8448 60.0599C97.8655 60.0441 97.8897 60.0334 97.9153 60.0286C97.9549 60.0213 97.9954 60.0213 98.0349 60.0286C98.4021 60.0595 98.7596 60.1619 99.0875 60.33Z" fill="#407BFF"/>
<path d="M99.3171 60.4118C99.3265 60.4048 99.3338 60.3952 99.3381 60.3842C99.3423 60.3732 99.3433 60.3612 99.341 60.3496C99.3051 59.9759 99.1528 59.6228 98.9056 59.3401C98.8562 59.3009 98.7994 59.2717 98.7386 59.2545C98.6779 59.2373 98.6143 59.2322 98.5516 59.2397C98.3794 59.2397 98.3315 59.3497 98.3219 59.4215C98.2837 59.7229 98.9295 60.2826 99.2549 60.4166H99.2788L99.3171 60.4118ZM98.8386 59.455C99.0423 59.6816 99.171 59.9657 99.207 60.2683C98.8769 60.0769 98.432 59.6368 98.4559 59.455C98.4559 59.455 98.4559 59.3976 98.5803 59.3832H98.6186C98.6925 59.3789 98.7659 59.3973 98.8291 59.4358L98.8386 59.455Z" fill="#407BFF"/>
<path d="M99.5506 60.0428L102.45 59.9758C102.503 59.9735 102.555 59.99 102.597 60.0224C102.639 60.0548 102.668 60.101 102.679 60.1528L103.263 62.4971C103.276 62.5537 103.276 62.6125 103.263 62.6691C103.251 62.7257 103.225 62.7788 103.19 62.8246C103.154 62.8704 103.109 62.9077 103.057 62.9337C103.005 62.9598 102.948 62.9741 102.89 62.9755C101.842 62.9755 100.33 62.9755 99.0195 62.9755C97.479 63.009 96.149 63.1238 94.3549 63.1669C93.2641 63.1956 92.9196 62.1 93.398 61.99C95.4648 61.4828 97.1585 61.3967 98.9286 60.2485C99.1141 60.1262 99.3287 60.0552 99.5506 60.0428Z" fill="#263238"/>
<path opacity="0.7" d="M116.903 21.4144L101.766 26.2369C101.766 26.2369 99.0965 23.6199 95.3983 20.7159C94.695 20.1657 93.963 19.6059 93.1927 19.051C92.1163 18.2663 90.9872 17.4961 89.8438 16.7832C89.8438 16.7832 94.0156 6.98987 99.2974 6.11914C99.2926 6.11914 112.942 10.2384 116.903 21.4144Z" fill="white"/>
<path opacity="0.1" d="M95.4009 20.7168C94.6976 20.1666 93.9656 19.6069 93.1953 19.0519L93.4919 18.1572C94.2974 18.8702 94.9472 19.7415 95.4009 20.7168Z" fill="black"/>
<path d="M73.531 30.7057L72.488 30.9545C72.3607 30.984 72.2449 31.0507 72.1555 31.1461C72.066 31.2415 72.007 31.3613 71.9857 31.4903L71.7513 32.9256C71.7263 33.0743 71.7531 33.2271 71.8271 33.3586C71.9011 33.49 72.0178 33.5921 72.1579 33.648L72.9234 33.9494C72.9234 33.9494 75.1242 35.5378 76.9852 34.5139L76.1815 32.385L74.6075 30.9497C74.461 30.8252 74.2866 30.738 74.0992 30.6955C73.9118 30.653 73.7168 30.6565 73.531 30.7057Z" fill="#E4897B"/>
<path d="M92.528 17.1855C92.9318 17.4662 93.2695 17.8316 93.5174 18.2564C93.7653 18.6811 93.9175 19.1549 93.9633 19.6446C93.9633 19.6446 92.9107 22.5151 92.3031 23.9169C91.8869 24.8738 91.4563 25.8306 90.954 26.7875C90.4358 27.8372 89.8139 28.8325 89.0977 29.7585L88.9302 29.9546L88.7389 30.1651C88.5874 30.3203 88.4277 30.4673 88.2604 30.6053C88.1583 30.6911 88.0512 30.771 87.9399 30.8445C87.8346 30.9163 87.6816 31.0167 87.6385 31.0359L87.2318 31.2464C86.7056 31.5095 86.2128 31.7248 85.72 31.921C84.7345 32.3228 83.7633 32.6769 82.7873 33.0118C80.8257 33.6672 78.8785 34.2652 76.8787 34.7676L75.9219 32.208C77.716 31.2894 79.5436 30.4187 81.3281 29.524C82.2227 29.0791 83.1126 28.6342 83.9642 28.1845C84.3852 27.9596 84.8062 27.706 85.1698 27.5051L85.4282 27.3424C85.4617 27.3137 85.4617 27.3089 85.5047 27.2467L85.5621 27.175L85.6291 27.0745C86.0919 26.3526 86.4951 25.5942 86.8347 24.8068C87.2127 23.9456 87.5954 23.051 87.9447 22.1372C88.6384 20.3192 89.3034 18.4246 89.9254 16.5874C90.8368 16.463 91.7623 16.6757 92.528 17.1855Z" fill="#407BFF"/>
<path opacity="0.7" d="M92.528 17.1855C92.9318 17.4662 93.2695 17.8316 93.5174 18.2564C93.7653 18.6811 93.9175 19.1549 93.9633 19.6446C93.9633 19.6446 92.9107 22.5151 92.3031 23.9169C91.8869 24.8738 91.4563 25.8306 90.954 26.7875C90.4358 27.8372 89.8139 28.8325 89.0977 29.7585L88.9302 29.9546L88.7389 30.1651C88.5874 30.3203 88.4277 30.4673 88.2604 30.6053C88.1583 30.6911 88.0512 30.771 87.9399 30.8445C87.8346 30.9163 87.6816 31.0167 87.6385 31.0359L87.2318 31.2464C86.7056 31.5095 86.2128 31.7248 85.72 31.921C84.7345 32.3228 83.7633 32.6769 82.7873 33.0118C80.8257 33.6672 78.8785 34.2652 76.8787 34.7676L75.9219 32.208C77.716 31.2894 79.5436 30.4187 81.3281 29.524C82.2227 29.0791 83.1126 28.6342 83.9642 28.1845C84.3852 27.9596 84.8062 27.706 85.1698 27.5051L85.4282 27.3424C85.4617 27.3137 85.4617 27.3089 85.5047 27.2467L85.5621 27.175L85.6291 27.0745C86.0919 26.3526 86.4951 25.5942 86.8347 24.8068C87.2127 23.9456 87.5954 23.051 87.9447 22.1372C88.6384 20.3192 89.3034 18.4246 89.9254 16.5874C90.8368 16.463 91.7623 16.6757 92.528 17.1855Z" fill="white"/>
<path d="M5.03125 144.122H85.8276L128.589 109.58L130.465 111.9H140.995L151.726 62.5127L141.186 62.5318L141.191 62.5127L90.6501 62.6132L96.683 70.0814L5.03125 144.122Z" fill="#407BFF"/>
<path opacity="0.2" d="M5.03125 144.122H75.2975L124.427 104.432L130.465 111.9L141.191 62.5127L90.6501 62.6132L96.683 70.0814L5.03125 144.122Z" fill="white"/>
<path d="M3.39293 141.272H61.4067C61.3781 141.024 61.3637 140.775 61.3636 140.525C61.363 139.64 61.5369 138.763 61.8754 137.944C62.2139 137.126 62.7103 136.382 63.3363 135.756C63.9624 135.129 64.7057 134.632 65.5239 134.293C66.342 133.954 67.219 133.78 68.1046 133.78H68.3534C68.8432 132.47 69.7773 131.374 70.9928 130.683C72.2083 129.992 73.6279 129.75 75.0037 129.999C76.3796 130.248 77.6243 130.972 78.5205 132.045C79.4168 133.118 79.9076 134.472 79.9074 135.87C81.3173 135.937 82.6521 136.525 83.6528 137.521C84.6535 138.516 85.2488 139.848 85.3232 141.257H85.5959C85.9995 141.241 86.4023 141.307 86.78 141.45C87.1578 141.594 87.5026 141.812 87.794 142.092C88.0853 142.372 88.3171 142.707 88.4754 143.079C88.6337 143.451 88.7153 143.851 88.7153 144.255C88.7153 144.659 88.6337 145.059 88.4754 145.43C88.3171 145.802 88.0853 146.138 87.794 146.418C87.5026 146.698 87.1578 146.916 86.78 147.059C86.4023 147.203 85.9995 147.268 85.5959 147.252H3.39293C2.98924 147.268 2.58646 147.203 2.20873 147.059C1.83101 146.916 1.48614 146.698 1.19481 146.418C0.903484 146.138 0.671704 145.802 0.513376 145.43C0.355048 145.059 0.273438 144.659 0.273438 144.255C0.273438 143.851 0.355048 143.451 0.513376 143.079C0.671704 142.707 0.903484 142.372 1.19481 142.092C1.48614 141.812 1.83101 141.594 2.20873 141.45C2.58646 141.307 2.98924 141.241 3.39293 141.257V141.272Z" fill="#407BFF"/>
<path opacity="0.7" d="M3.39293 141.272H61.4067C61.3781 141.024 61.3637 140.775 61.3636 140.525C61.363 139.64 61.5369 138.763 61.8754 137.944C62.2139 137.126 62.7103 136.382 63.3363 135.756C63.9624 135.129 64.7057 134.632 65.5239 134.293C66.342 133.954 67.219 133.78 68.1046 133.78H68.3534C68.8432 132.47 69.7773 131.374 70.9928 130.683C72.2083 129.992 73.6279 129.75 75.0037 129.999C76.3796 130.248 77.6243 130.972 78.5205 132.045C79.4168 133.118 79.9076 134.472 79.9074 135.87C81.3173 135.937 82.6521 136.525 83.6528 137.521C84.6535 138.516 85.2488 139.848 85.3232 141.257H85.5959C85.9995 141.241 86.4023 141.307 86.78 141.45C87.1578 141.594 87.5026 141.812 87.794 142.092C88.0853 142.372 88.3171 142.707 88.4754 143.079C88.6337 143.451 88.7153 143.851 88.7153 144.255C88.7153 144.659 88.6337 145.059 88.4754 145.43C88.3171 145.802 88.0853 146.138 87.794 146.418C87.5026 146.698 87.1578 146.916 86.78 147.059C86.4023 147.203 85.9995 147.268 85.5959 147.252H3.39293C2.98924 147.268 2.58646 147.203 2.20873 147.059C1.83101 146.916 1.48614 146.698 1.19481 146.418C0.903484 146.138 0.671704 145.802 0.513376 145.43C0.355048 145.059 0.273438 144.659 0.273438 144.255C0.273438 143.851 0.355048 143.451 0.513376 143.079C0.671704 142.707 0.903484 142.372 1.19481 142.092C1.48614 141.812 1.83101 141.594 2.20873 141.45C2.58646 141.307 2.98924 141.241 3.39293 141.257V141.272Z" fill="white"/>
</svg>
